{"title":"My Mad Fat Diary S03E01 720p mHD HDTV EN-SUB x264-[MULVAcoded]","uid":12096528,"size":230270921,"categoryP":"video","categoryS":"hd___tv_shows","magnet":"?xt=urn:btih:bcf8c5a7a6160194aea3c9ff2ab4fb4dc80766da&amp;dn=My+Mad+Fat+Diary+S03E01+720p+mHD+HDTV+EN-SUB+x264-%5BMULVAcoded%5D&amp;tr=udp%3A%2F%2Ftracker.openbittorrent.com%3A80&amp;tr=udp%3A%2F%2Fopen.demonii.com%3A1337&amp;tr=udp%3A%2F%2Ftracker.coppersurfer.tk%3A6969&amp;tr=udp%3A%2F%2Fexodus.desync.com%3A6969","seeders":0,"leechers":1,"uploader":"Mulva1989","files":2,"time":1436167435,"description":"My Mad Fat Diary S03E01 720p mHD HDTV EN-SUB x264-[MULVAcoded]\n\nJune 1998. Rae Earl is boss. Drinking, dancing and dating the hottest guy in the North - Rae has life as a teenager nailed. Despite a disastrous university interview, Rae's future in Stamford is looking bright. However, change is on the horizon as the gang grows up. When Rae's attempts to maintain the status quo backfires, she faces one of her biggest challenges yet. Is Rae Earl ready to grow up?\n\nScreens @ &lt;a href=&quot;\nhttps://yuq.me/users/50/321/4Ibk8NDq97.jpg&quot; rel=&quot;nofollow&quot; target=&quot;_NEW&quot;&gt;\nhttps://yuq.me/users/50/321/4Ibk8NDq97.jpg&lt;/a&gt; &lt;a href=&quot;\nhttps://yuq.me/users/50/321/rm7vVkR2xD.jpg&quot; rel=&quot;nofollow&quot; target=&quot;_NEW&quot;&gt;\nhttps://yuq.me/users/50/321/rm7vVkR2xD.jpg&lt;/a&gt;\n\nVideo\nID : 1\nFormat : AVC\nFormat/Info : Advanced Video Codec\nFormat profile : &lt;a class=&quot;__cf_email__&quot; href=&quot;/cdn-cgi/l/email-protection&quot; data-cfemail=&quot;8bc3e2ece3cbc7bea5bb&quot;&gt;[email&amp;#160;protected]&lt;/a&gt;&lt;script data-cfhash='f9e31' type=&quot;text/javascript&quot;&gt;\n/* &lt;![CDATA[ */!function(){try{var t=&quot;currentScript&quot;in document?document.currentScript:function(){for(var t=document.getElementsByTagName(&quot;script&quot;),e=t.length;e--;)if(t[e].getAttribute(&quot;data-cfhash&quot;))return t[e]}();if(t&amp;&amp;t.previousSibling){var e,r,n,i,c=t.previousSibling,a=c.getAttribute(&quot;data-cfemail&quot;);if(a){for(e=&quot;&quot;,r=parseInt(a.substr(0,2),16),n=2;a.length-n;n+=2)i=parseInt(a.substr(n,2),16)^r,e+=String.fromCharCode(i);e=document.createTextNode(e),c.parentNode.replaceChild(e,c)}t.parentNode.removeChild(t);}}catch(u){}}()/* ]]&gt; */&lt;/script&gt;\nFormat settings, CABAC : Yes\nFormat settings, ReFrames : 16 frames\nCodec ID : avc1\nCodec ID/Info : Advanced Video Coding\nDuration : 46mn 43s\nBit rate : 557 Kbps\nWidth : 1 280 pixels\nHeight : 720 pixels\nDisplay aspect ratio : 16:9\nFrame rate mode : Constant\nFrame rate : 25.000 fps\nColor space : YUV\nChroma subsampling : 4:2:0\nBit depth : 8 bits\nScan type : Progressive\nBits/(Pixel*Frame) : 0.024\nStream size : 186 MiB (85%)\nWriting library : x264 core 130 r2273 b3065e6\nEncoding settings : cabac=1 / ref=16 / deblock=1:0:0 / analyse=0x3:0x113 / me=umh / subme=8 / psy=1 / psy_rd=1.00:0.00 / mixed_ref=1 / me_range=16 / chroma_me=1 / trellis=1 / 8x8dct=1 / cqm=0 / deadzone=21,11 / fast_pskip=1 / chroma_qp_offset=-2 / threads=6 / lookahead_threads=3 / sliced_threads=0 / nr=0 / decimate=1 / interlaced=0 / bluray_compat=0 / constrained_intra=0 / bframes=16 / b_pyramid=2 / b_adapt=2 / b_bias=0 / direct=3 / weightb=1 / open_gop=0 / weightp=2 / keyint=250 / keyint_min=25 / scenecut=40 / intra_refresh=0 / rc_lookahead=50 / rc=crf / mbtree=1 / crf=28.0 / qcomp=0.60 / qpmin=0 / qpmax=69 / qpstep=4 / ip_ratio=1.40 / aq=1:1.00\nEncoded date : UTC 2015-07-05 19:22:29\nTagged date : UTC 2015-07-05 23:33:11\nColor primaries : BT.709\nTransfer characteristics : BT.709\nMatrix coefficients : BT.709\nColor range : Limited\n\nAudio\nID : 2\nFormat : AAC\nFormat/Info : Advanced Audio Codec\nFormat profile : LC\nCodec ID : 40\nDuration : 46mn 43s\nBit rate mode : Variable\nBit rate : 96.0 Kbps\nMaximum bit rate : 187 Kbps\nChannel(s) : 2 channels\nChannel positions : Front: L R\nSampling rate : 48.0 KHz\nCompression mode : Lossy\nStream size : 32.1 MiB (15%)\nTitle : Stereo\nEncoded date : UTC 2015-07-05 19:22:29\nTagged date : UTC 2015-07-05 23:33:09\n\nText\nID : 3\nFormat : Timed Text\nMuxing mode : sbtl\nCodec ID : tx3g\nDuration : 46mn 4s\nBit rate mode : Variable\nBit rate : 78 bps\nStream size : 26.4 KiB (0%)\nLanguage : English\nEncoded date : UTC 2015-07-05 19:22:29\nTagged date : UTC 2015-07-05 23:33:09","torrent":{"xt":"urn:btih:bcf8c5a7a6160194aea3c9ff2ab4fb4dc80766da","amp;dn":"My+Mad+Fat+Diary+S03E01+720p+mHD+HDTV+EN-SUB+x264-%5BMULVAcoded%5D","amp;tr":["udp%3A%2F%2Ftracker.openbittorrent.com%3A80","udp%3A%2F%2Fopen.demonii.com%3A1337","udp%3A%2F%2Ftracker.coppersurfer.tk%3A6969","udp%3A%2F%2Fexodus.desync.com%3A6969"],"infoHash":"bcf8c5a7a6160194aea3c9ff2ab4fb4dc80766da","infoHashBuffer":{"type":"Buffer","data":[188,248,197,167,166,22,1,148,174,163,201,255,42,180,251,77,200,7,102,218]},"announce":[],"urlList":[]}}